<svg width="81" height="68" viewBox="0 0 81 68" fill="none" xmlns="http://www.w3.org/2000/svg">
<path d="M69.9047 52.1181C70.0423 52.0263 71.9879 51.4683 72.9434 51.2007C73.2645 51.1103 73.383 51.3159 73.4021 51.43V60.8331C73.4021 61.6358 74.3195 61.8078 74.3768 61.8078C74.4342 61.8078 75.0649 61.8651 75.0649 62.2665C75.0649 62.5875 74.8355 62.6678 74.7209 62.6678H70.0767C69.5606 62.6678 69.446 62.4958 69.446 62.2091C69.446 61.9225 69.79 61.9225 70.478 61.6931C71.0284 61.5096 71.2043 60.8904 71.2234 60.6037V54.3542C71.2234 54.1248 71.166 53.6661 70.994 53.4368C70.822 53.2074 70.1913 52.9781 69.8473 52.8061C69.5033 52.6341 69.7327 52.2327 69.9047 52.1181Z" fill="#F7F5EF"/>
<path d="M48.3465 52.1754C48.53 52.0837 50.143 51.5256 50.9266 51.258C51.6605 51.0746 51.9204 51.3345 51.9586 51.4874V52.9208C52.5129 52.2327 54.08 50.8796 55.9148 50.9714C57.7495 51.0631 58.8198 52.3092 59.1256 52.9208C59.8709 52.0607 61.8203 50.9714 63.1391 50.9714C64.4578 50.9714 65.0311 51.43 65.7765 52.4048C66.3728 53.1845 66.4836 54.1439 66.4645 54.5262V61.0051C66.4645 61.4638 66.9805 61.8651 67.4392 61.8651C67.8979 61.8651 68.1273 62.0945 68.1273 62.3238C68.1273 62.5073 67.9361 62.6296 67.8406 62.6678H63.3111C62.7951 62.6678 62.5657 62.6678 62.5657 62.3238C62.5657 61.9798 62.9097 61.9798 63.4831 61.7504C63.9418 61.567 64.0564 61.1006 64.0564 60.8904V54.3542C64.0564 53.6661 63.3111 53.0928 62.7951 52.9208C62.279 52.7488 61.419 52.8061 60.559 53.0928C59.8709 53.3221 59.3549 53.9528 59.1829 54.2395V60.7757C59.1829 61.4638 59.8136 61.9798 60.1576 61.9798C60.5016 61.9798 60.731 62.0945 60.731 62.3238C60.731 62.5073 60.5399 62.6296 60.4443 62.6678H55.7428C55.3988 62.6678 55.2841 62.6678 55.2841 62.3238C55.2841 61.9798 55.6281 61.9798 56.2588 61.7504C56.7633 61.567 56.8513 60.9478 56.8321 60.6611V54.5262C56.8321 54.1822 56.7175 53.6088 56.0868 53.0928C55.4561 52.5768 54.3667 52.7488 53.6214 52.9208C53.0251 53.0584 52.2644 53.8573 51.9586 54.2395V61.0051C51.9586 61.4638 52.4746 61.7504 52.876 61.8651C53.2773 61.9798 53.4494 61.9798 53.4494 62.3238C53.4494 62.599 53.2582 62.6678 53.1627 62.6678H48.4612C48.1171 62.6678 48.0025 62.6678 47.9451 62.3238C47.8878 61.9798 48.0598 62.0371 48.9198 61.7504C49.6079 61.5211 49.7416 60.7757 49.7225 60.4317V54.5262C49.7225 53.2074 49.0918 53.1501 48.4612 52.9208C47.8305 52.6914 48.1171 52.2901 48.3465 52.1754Z" fill="#F7F5EF"/>
<path d="M34.8153 51.3727H40.0902C40.3195 51.3727 40.3768 51.4874 40.3768 51.7167C40.3768 51.9461 40.0902 52.0034 39.6888 52.0034C39.2875 52.0034 38.8861 52.4621 38.8861 52.6914C38.8861 52.8749 39.1155 53.6852 39.2301 54.0675C39.899 55.9022 41.2713 59.6634 41.4089 60.0304C41.5809 60.4891 41.8676 60.2597 41.9249 60.1451C41.9822 60.0304 42.8996 57.565 43.0716 57.1636C43.2436 56.7623 44.2183 53.7235 44.3903 53.0354C44.5623 52.3474 43.817 52.1181 43.5876 52.0607C43.3583 52.0034 43.1289 52.0034 43.0716 51.7167C43.0257 51.4874 43.2436 51.3918 43.3583 51.3727H47.1998C47.6011 51.3727 47.6585 52.0034 47.0851 52.0034C46.5117 52.0034 45.8811 52.8634 45.709 53.2074C45.537 53.5515 43.7023 58.0236 43.5303 58.425C43.3583 58.8263 40.8355 65.0759 40.0328 66.28C39.2301 67.484 38.0834 68 37.0514 68C36.0193 68 35.5033 67.3693 35.446 66.624C35.3886 65.8786 36.1913 65.6493 36.478 65.6493C36.7647 65.6493 38.0261 66.1653 38.7714 65.7639C39.5168 65.3626 39.8035 64.6746 40.2048 63.9865C40.5259 63.4361 40.3386 62.8016 40.2048 62.5531L39.0008 59.5717C38.2554 57.7943 36.7303 54.1592 36.5927 53.8381C36.4207 53.4368 36.134 52.9781 35.8473 52.5768C35.5606 52.1754 35.102 52.2327 34.7006 51.9461C34.3795 51.7167 34.6433 51.4683 34.8153 51.3727Z" fill="#F7F5EF"/>
<path fill-rule="evenodd" clip-rule="evenodd" d="M29.3684 51.0287C28.6804 50.9905 27.052 51.1434 26.0429 52.0607C24.7816 53.2075 24.0362 54.9275 25.5843 55.1569C26.9166 55.3542 27.0173 53.9378 27.0561 53.393C27.0623 53.3048 27.067 53.2394 27.075 53.2074C27.1323 52.9781 27.419 51.8314 28.5657 51.8887C29.7124 51.9461 30.6871 52.4048 30.8591 53.4368C30.9967 54.2624 30.9547 55.348 30.9165 55.7875C28.7759 56.3418 24.449 57.8631 24.2655 59.5144C24.0362 61.5784 25.0109 63.0118 26.9603 63.0118C28.9097 63.0118 30.6871 61.5784 30.9165 61.2344C31.0311 61.8269 31.5242 63.0118 32.5792 63.0118C33.8979 63.0118 34.8153 62.2091 34.9873 62.0371C35.1593 61.8651 35.2166 61.2918 34.6433 61.4064C34.0699 61.5211 33.2672 61.4064 33.2672 60.8904V53.8381C33.1334 52.8252 32.1664 50.8452 29.3684 51.0287ZM30.9165 56.6476C29.7124 56.9151 27.1782 57.7714 26.6736 59.0557C26.0429 60.6611 27.4763 61.4064 28.3364 61.4064C29.1964 61.4064 30.7445 60.4891 30.9165 59.9157V56.6476Z" fill="#F7F5EF"/>
<path d="M18.9907 48.6206V51.3154H22.3735C22.5072 51.3154 22.7748 51.43 22.7748 51.8887C22.7748 52.3474 22.5072 52.4621 22.3735 52.4621H18.9907C18.9716 54.4879 18.9333 58.7575 18.9333 59.629C18.9333 60.7184 19.736 61.2344 19.908 61.2918C20.08 61.3491 21.4561 61.7504 22.2588 61.2344C23.0615 60.7184 23.0615 61.2344 23.0615 61.2918C23.0615 61.3491 22.2015 63.1838 19.392 63.0118C17.1445 62.8742 16.6208 60.7375 16.6399 59.6864V52.4621H15.6079C15.3785 52.4621 15.0345 52.2901 15.1492 52.0607C15.2639 51.8314 16.1812 50.9714 16.8692 50.57C17.5573 50.1687 18.188 48.4486 18.5893 48.4486C18.9104 48.4486 18.9907 48.5633 18.9907 48.6206Z" fill="#F7F5EF"/>
<path d="M13.0278 51.8314V54.3542C13.0278 54.4115 12.959 54.5262 12.6837 54.5262C12.3397 54.5262 12.2824 54.1248 12.0531 53.6661C11.8237 53.2074 11.193 52.0607 9.41562 52.0034C7.63822 51.9461 7.35154 53.2648 7.40888 54.1248C7.46621 54.9849 8.78493 55.5582 10.677 56.0742C12.5691 56.5902 13.4291 57.909 13.5438 58.3677C13.6585 58.8263 13.6585 60.2597 13.3144 60.7757C12.9704 61.2918 11.7664 62.9545 9.18628 63.0118C7.1222 63.0577 5.65058 62.4194 5.17279 62.0945V60.2597C5.13456 59.8775 5.16132 59.113 5.57414 59.113C6.09016 59.113 6.09016 59.629 6.43417 60.4891C6.77818 61.3491 7.9249 62.0945 9.18628 62.0945C10.4477 62.0945 11.537 61.1771 11.537 59.973C11.537 58.769 10.0463 58.3103 8.8996 57.909C7.75289 57.5076 5.3448 56.9916 5.40213 54.5262C5.45947 52.0607 7.46621 51.086 9.75964 51.0287C11.5944 50.9828 12.7029 51.5447 13.0278 51.8314Z" fill="#F7F5EF"/>
<path d="M73.8035 47.5312C73.8035 48.4812 73.0334 49.2513 72.0834 49.2513C71.1334 49.2513 70.3633 48.4812 70.3633 47.5312C70.3633 46.5813 71.1334 45.8112 72.0834 45.8112C73.0334 45.8112 73.8035 46.5813 73.8035 47.5312Z" fill="#F7F5EF"/>
<path d="M29.5278 26.7184C31.1332 25.2965 35.6245 25.2468 37.6695 25.3997C35.7201 22.5329 35.3187 18.0034 36.6948 13.9899C38.0708 9.97642 42.027 7.683 42.9444 7.28165C43.8617 6.8803 45.1231 6.47895 45.2378 5.90559C45.3525 5.33224 41.2816 4.18553 36.5801 6.47895C31.8786 8.77237 28.7251 13.9326 28.3238 18.8061C28.0027 22.7049 28.9927 25.7055 29.5278 26.7184Z" fill="#F7F5EF"/>
<path d="M57.9663 32.3946H46.4992L46.3272 32.0506C46.2125 31.8213 45.6965 31.2479 43.8617 29.2985C42.3939 27.739 39.7336 27.3491 38.5869 27.3491H32.796C30.8466 27.3491 28.9545 28.8398 27.9224 30.1012C26.8904 31.3626 26.2024 32.796 26.2024 33.484C26.2024 34.0344 26.6228 34.2867 26.8331 34.344H58.597L59.801 34.9747V28.4958C59.8393 28.2282 59.7208 27.6931 58.941 27.6931C58.1612 27.6931 57.9663 28.2282 57.9663 28.4958V32.3946Z" fill="#F7F5EF"/>
<path d="M21.0995 24.0236H24.1956C24.7461 24.0236 24.9219 24.4441 24.941 24.6543V35.4908C24.941 35.8577 25.2468 36.0259 25.3997 36.0641H58.769C59.6405 36.0641 59.8201 36.5992 59.801 36.8668V42.715C59.801 43.1737 59.457 43.2884 59.285 43.2884H56.3609C55.9481 43.2884 55.7684 42.9062 55.7302 42.715V40.7656C55.7302 40.3987 55.3097 40.2305 55.0995 40.1923H25.3997C25.0327 40.1923 24.941 40.5363 24.941 40.7083V42.543C24.941 43.1393 24.5205 43.2884 24.3103 43.2884H21.3289C20.6867 43.2884 20.5262 42.7915 20.5262 42.543V24.6543C20.5262 24.2415 20.9084 24.0619 21.0995 24.0236Z" fill="#F7F5EF"/>
<path d="M53.6088 27.3491C53.6088 29.4707 51.8632 31.1906 49.71 31.1906C47.5567 31.1906 45.8111 29.4707 45.8111 27.3491C45.8111 25.2275 47.5567 23.5076 49.71 23.5076C51.8632 23.5076 53.6088 25.2275 53.6088 27.3491Z" fill="#F7F5EF"/>
</svg>
